<svg width="100%" height="100%" viewBox="0 0 921 114" fill="none" xmlns="http://www.w3.org/2000/svg">
<rect opacity="0.5" x="0.5" y="0.5" width="920" height="113" rx="9.5" fill="#D9D9D9" stroke="black"/>
<line x1="131" y1="4" x2="131" y2="64" stroke="black" stroke-width="4"/>
<line x1="222" y1="4" x2="222" y2="64" stroke="black" stroke-width="4"/>
<line x1="311" y1="4" x2="311" y2="64" stroke="black" stroke-width="4"/>
<line x1="401" y1="4" x2="401" y2="64" stroke="black" stroke-width="4"/>
<line x1="491" y1="4" x2="491" y2="64" stroke="black" stroke-width="4"/>
<line x1="581" y1="4" x2="581" y2="64" stroke="black" stroke-width="4"/>
<line x1="671" y1="4" x2="671" y2="64" stroke="black" stroke-width="4"/>
<line x1="761" y1="4" x2="761" y2="64" stroke="black" stroke-width="4"/>
<line x1="851" y1="4" x2="851" y2="64" stroke="black" stroke-width="4"/>
<line x1="851" y1="85" x2="851" y2="110" stroke="black" stroke-width="4"/>
<line x1="761" y1="85" x2="761" y2="110" stroke="black" stroke-width="4"/>
<line x1="671" y1="85" x2="671" y2="110" stroke="black" stroke-width="4"/>
<line x1="581" y1="85" x2="581" y2="110" stroke="black" stroke-width="4"/>
<line x1="491" y1="85" x2="491" y2="110" stroke="black" stroke-width="4"/>
<line x1="401" y1="85" x2="401" y2="110" stroke="black" stroke-width="4"/>
<line x1="311" y1="85" x2="311" y2="110" stroke="black" stroke-width="4"/>
<line x1="222" y1="85" x2="222" y2="110" stroke="black" stroke-width="4"/>
<line x1="131" y1="85" x2="131" y2="110" stroke="black" stroke-width="4"/>
<line x1="129" y1="2" x2="853" y2="2" stroke="black" stroke-width="4"/>
<line x1="129" y1="112" x2="853" y2="112" stroke="black" stroke-width="4"/>
<g filter="url(#filter0_d_5_111)">
<rect x="133" y="4" width="25" height="30" fill="#D9D9D9"/>
<rect x="133.5" y="4.5" width="24" height="29" stroke="black"/>
</g>
<rect x="222.5" y="4.5" width="24" height="29" fill="#D9D9D9" stroke="black"/>
<rect x="312.5" y="4.5" width="24" height="29" fill="#D9D9D9" stroke="black"/>
<rect x="402.5" y="4.5" width="24" height="29" fill="#D9D9D9" stroke="black"/>
<rect x="493.5" y="4.5" width="24" height="29" fill="#D9D9D9" stroke="black"/>
<rect x="583.5" y="4.5" width="24" height="29" fill="#D9D9D9" stroke="black"/>
<rect x="673.5" y="4.5" width="24" height="29" fill="#D9D9D9" stroke="black"/>
<rect x="763.5" y="4.5" width="24" height="29" fill="#D9D9D9" stroke="black"/>
<rect x="195.5" y="4.5" width="24" height="29" fill="#D9D9D9" stroke="black"/>
<rect x="284.5" y="4.5" width="24" height="29" fill="#D9D9D9" stroke="black"/>
<rect x="374.5" y="4.5" width="24" height="29" fill="#D9D9D9" stroke="black"/>
<rect x="464.5" y="4.5" width="24" height="29" fill="#D9D9D9" stroke="black"/>
<rect x="555.5" y="4.5" width="24" height="29" fill="#D9D9D9" stroke="black"/>
<rect x="645.5" y="4.5" width="24" height="29" fill="#D9D9D9" stroke="black"/>
<rect x="735.5" y="4.5" width="24" height="29" fill="#D9D9D9" stroke="black"/>
<rect x="825.5" y="4.5" width="24" height="29" fill="#D9D9D9" stroke="black"/>
<rect x="133.5" y="34.5" width="24" height="29" fill="#D9D9D9" stroke="black"/>
<rect x="133.5" y="109.5" width="24" height="42" transform="rotate(-90 133.5 109.5)" fill="#D9D9D9" stroke="black"/>
<rect x="222.5" y="109.5" width="24" height="42" transform="rotate(-90 222.5 109.5)" fill="#D9D9D9" stroke="black"/>
<rect x="312.5" y="109.5" width="24" height="42" transform="rotate(-90 312.5 109.5)" fill="#D9D9D9" stroke="black"/>
<rect x="402.5" y="109.5" width="24" height="42" transform="rotate(-90 402.5 109.5)" fill="#D9D9D9" stroke="black"/>
<rect x="493.5" y="109.5" width="24" height="42" transform="rotate(-90 493.5 109.5)" fill="#D9D9D9" stroke="black"/>
<rect x="583.5" y="109.5" width="24" height="42" transform="rotate(-90 583.5 109.5)" fill="#D9D9D9" stroke="black"/>
<rect x="673.5" y="109.5" width="24" height="42" transform="rotate(-90 673.5 109.5)" fill="#D9D9D9" stroke="black"/>
<rect x="763.5" y="109.5" width="24" height="42" transform="rotate(-90 763.5 109.5)" fill="#D9D9D9" stroke="black"/>
<rect x="176.5" y="109.5" width="24" height="43" transform="rotate(-90 176.5 109.5)" fill="#D9D9D9" stroke="black"/>
<rect x="265.5" y="109.5" width="24" height="43" transform="rotate(-90 265.5 109.5)" fill="#D9D9D9" stroke="black"/>
<rect x="355.5" y="109.5" width="24" height="43" transform="rotate(-90 355.5 109.5)" fill="#D9D9D9" stroke="black"/>
<rect x="445.5" y="109.5" width="24" height="43" transform="rotate(-90 445.5 109.5)" fill="#D9D9D9" stroke="black"/>
<rect x="536.5" y="109.5" width="24" height="43" transform="rotate(-90 536.5 109.5)" fill="#D9D9D9" stroke="black"/>
<rect x="626.5" y="109.5" width="24" height="43" transform="rotate(-90 626.5 109.5)" fill="#D9D9D9" stroke="black"/>
<rect x="716.5" y="109.5" width="24" height="43" transform="rotate(-90 716.5 109.5)" fill="#D9D9D9" stroke="black"/>
<rect x="806.5" y="109.5" width="24" height="43" transform="rotate(-90 806.5 109.5)" fill="#D9D9D9" stroke="black"/>
<rect x="222.5" y="34.5" width="24" height="29" fill="#D9D9D9" stroke="black"/>
<rect x="312.5" y="34.5" width="24" height="29" fill="#D9D9D9" stroke="black"/>
<rect x="402.5" y="34.5" width="24" height="29" fill="#D9D9D9" stroke="black"/>
<rect x="493.5" y="34.5" width="24" height="29" fill="#D9D9D9" stroke="black"/>
<rect x="583.5" y="34.5" width="24" height="29" fill="#D9D9D9" stroke="black"/>
<rect x="673.5" y="34.5" width="24" height="29" fill="#D9D9D9" stroke="black"/>
<rect x="763.5" y="34.5" width="24" height="29" fill="#D9D9D9" stroke="black"/>
<rect x="195.5" y="34.5" width="24" height="29" fill="#D9D9D9" stroke="black"/>
<rect x="284.5" y="34.5" width="24" height="29" fill="#D9D9D9" stroke="black"/>
<rect x="374.5" y="34.5" width="24" height="29" fill="#D9D9D9" stroke="black"/>
<rect x="464.5" y="34.5" width="24" height="29" fill="#D9D9D9" stroke="black"/>
<rect x="555.5" y="34.5" width="24" height="29" fill="#D9D9D9" stroke="black"/>
<rect x="645.5" y="34.5" width="24" height="29" fill="#D9D9D9" stroke="black"/>
<rect x="735.5" y="34.5" width="24" height="29" fill="#D9D9D9" stroke="black"/>
<rect x="825.5" y="34.5" width="24" height="29" fill="#D9D9D9" stroke="black"/>
<line x1="882.5" x2="882.5" y2="114" stroke="black"/>
<line x1="39.5" x2="39.5" y2="114" stroke="black"/>
<line x1="39.2509" y1="34.5675" x2="89.2509" y2="63.5675" stroke="black"/>
<line x1="89" y1="63.5" x2="129" y2="63.5" stroke="black"/>
<line x1="73.5" y1="1" x2="73.5" y2="54" stroke="black"/>
<line x1="39.2716" y1="64.5802" x2="73.2716" y2="86.5802" stroke="black"/>
<path d="M73.5 86V113" stroke="black"/>
<line x1="852.695" y1="59.6037" x2="865.695" y2="49.6037" stroke="black"/>
<line x1="865.5" y1="34" x2="865.5" y2="50" stroke="black"/>
<line x1="865" y1="34.5" x2="883" y2="34.5" stroke="black"/>
<defs>
<filter id="filter0_d_5_111" x="129" y="4" width="33" height="38" filterUnits="userSpaceOnUse" color-interpolation-filters="sRGB">
<feFlood flood-opacity="0" result="BackgroundImageFix"/>
<feColorMatrix in="SourceAlpha" type="matrix" values="0 0 0 0 0 0 0 0 0 0 0 0 0 0 0 0 0 0 127 0" result="hardAlpha"/>
<feOffset dy="4"/>
<feGaussianBlur stdDeviation="2"/>
<feComposite in2="hardAlpha" operator="out"/>
<feColorMatrix type="matrix" values="0 0 0 0 0 0 0 0 0 0 0 0 0 0 0 0 0 0 0.25 0"/>
<feBlend mode="normal" in2="BackgroundImageFix" result="effect1_dropShadow_5_111"/>
<feBlend mode="normal" in="SourceGraphic" in2="effect1_dropShadow_5_111" result="shape"/>
</filter>
</defs>
</svg>
