<svg width="1000" height="150" viewBox="0 0 1000 150" fill="none" xmlns="http://www.w3.org/2000/svg">
<rect opacity="0.5" x="0.5" y="0.5" width="999" height="149" rx="9.5" fill="#D9D9D9" stroke="black"/>
<line x1="142.065" y1="5.26316" x2="142.065" y2="84.2105" stroke="black" stroke-width="4"/>
<line x1="240.871" y1="5.26316" x2="240.871" y2="84.2105" stroke="black" stroke-width="4"/>
<line x1="337.505" y1="5.26316" x2="337.505" y2="84.2105" stroke="black" stroke-width="4"/>
<line x1="435.225" y1="5.26316" x2="435.225" y2="84.2105" stroke="black" stroke-width="4"/>
<line x1="532.945" y1="5.26316" x2="532.945" y2="84.2105" stroke="black" stroke-width="4"/>
<line x1="630.664" y1="5.26316" x2="630.664" y2="84.2105" stroke="black" stroke-width="4"/>
<line x1="728.384" y1="5.26316" x2="728.384" y2="84.2105" stroke="black" stroke-width="4"/>
<line x1="826.104" y1="5.26316" x2="826.104" y2="84.2105" stroke="black" stroke-width="4"/>
<line x1="923.824" y1="5.26316" x2="923.824" y2="84.2105" stroke="black" stroke-width="4"/>
<line x1="923.824" y1="111.842" x2="923.824" y2="144.737" stroke="black" stroke-width="4"/>
<line x1="826.104" y1="111.842" x2="826.104" y2="144.737" stroke="black" stroke-width="4"/>
<line x1="728.384" y1="111.842" x2="728.384" y2="144.737" stroke="black" stroke-width="4"/>
<line x1="630.664" y1="111.842" x2="630.664" y2="144.737" stroke="black" stroke-width="4"/>
<line x1="532.945" y1="111.842" x2="532.945" y2="144.737" stroke="black" stroke-width="4"/>
<line x1="435.225" y1="111.842" x2="435.225" y2="144.737" stroke="black" stroke-width="4"/>
<line x1="337.505" y1="111.842" x2="337.505" y2="144.737" stroke="black" stroke-width="4"/>
<line x1="240.871" y1="111.842" x2="240.871" y2="144.737" stroke="black" stroke-width="4"/>
<line x1="142.065" y1="111.842" x2="142.065" y2="144.737" stroke="black" stroke-width="4"/>
<line x1="140.065" y1="3.26316" x2="926.167" y2="3.26316" stroke="black" stroke-width="4"/>
<line x1="140.065" y1="147" x2="926.167" y2="147" stroke="black" stroke-width="4"/>
<g filter="url(#filter0_d_5_111)">
<rect x="144.408" y="5.26316" width="27.1444" height="39.4737" fill="#D9D9D9"/>
<rect x="144.908" y="5.76316" width="26.1444" height="38.4737" stroke="black"/>
</g>
<rect x="241.542" y="5.76316" width="26.1444" height="38.4737" fill="#D9D9D9" stroke="black"/>
<rect x="339.262" y="5.76316" width="26.1444" height="38.4737" fill="#D9D9D9" stroke="black"/>
<rect x="436.982" y="5.76316" width="26.1444" height="38.4737" fill="#D9D9D9" stroke="black"/>
<rect x="535.788" y="5.76316" width="26.1444" height="38.4737" fill="#D9D9D9" stroke="black"/>
<rect x="633.508" y="5.76316" width="26.1444" height="38.4737" fill="#D9D9D9" stroke="black"/>
<rect x="731.227" y="5.76316" width="26.1444" height="38.4737" fill="#D9D9D9" stroke="black"/>
<rect x="828.947" y="5.76316" width="26.1444" height="38.4737" fill="#D9D9D9" stroke="black"/>
<rect x="212.226" y="5.76316" width="26.1444" height="38.4737" fill="#D9D9D9" stroke="black"/>
<rect x="308.86" y="5.76316" width="26.1444" height="38.4737" fill="#D9D9D9" stroke="black"/>
<rect x="406.58" y="5.76316" width="26.1444" height="38.4737" fill="#D9D9D9" stroke="black"/>
<rect x="504.3" y="5.76316" width="26.1444" height="38.4737" fill="#D9D9D9" stroke="black"/>
<rect x="603.106" y="5.76316" width="26.1444" height="38.4737" fill="#D9D9D9" stroke="black"/>
<rect x="700.826" y="5.76316" width="26.1444" height="38.4737" fill="#D9D9D9" stroke="black"/>
<rect x="798.546" y="5.76316" width="26.1444" height="38.4737" fill="#D9D9D9" stroke="black"/>
<rect x="896.265" y="5.76316" width="26.1444" height="38.4737" fill="#D9D9D9" stroke="black"/>
<rect x="144.908" y="45.2368" width="26.1444" height="38.4737" fill="#D9D9D9" stroke="black"/>
<rect x="144.908" y="144.237" width="31.8947" height="45.6884" transform="rotate(-90 144.908 144.237)" fill="#D9D9D9" stroke="black"/>
<rect x="241.542" y="144.237" width="31.8947" height="45.6884" transform="rotate(-90 241.542 144.237)" fill="#D9D9D9" stroke="black"/>
<rect x="339.262" y="144.237" width="31.8947" height="45.6884" transform="rotate(-90 339.262 144.237)" fill="#D9D9D9" stroke="black"/>
<rect x="436.982" y="144.237" width="31.8947" height="45.6884" transform="rotate(-90 436.982 144.237)" fill="#D9D9D9" stroke="black"/>
<rect x="535.788" y="144.237" width="31.8947" height="45.6884" transform="rotate(-90 535.788 144.237)" fill="#D9D9D9" stroke="black"/>
<rect x="633.508" y="144.237" width="31.8947" height="45.6884" transform="rotate(-90 633.508 144.237)" fill="#D9D9D9" stroke="black"/>
<rect x="731.227" y="144.237" width="31.8947" height="45.6884" transform="rotate(-90 731.227 144.237)" fill="#D9D9D9" stroke="black"/>
<rect x="828.947" y="144.237" width="31.8947" height="45.6884" transform="rotate(-90 828.947 144.237)" fill="#D9D9D9" stroke="black"/>
<rect x="191.597" y="144.237" width="31.8947" height="46.7742" transform="rotate(-90 191.597 144.237)" fill="#D9D9D9" stroke="black"/>
<rect x="288.231" y="144.237" width="31.8947" height="46.7742" transform="rotate(-90 288.231 144.237)" fill="#D9D9D9" stroke="black"/>
<rect x="385.951" y="144.237" width="31.8947" height="46.7742" transform="rotate(-90 385.951 144.237)" fill="#D9D9D9" stroke="black"/>
<rect x="483.67" y="144.237" width="31.8947" height="46.7742" transform="rotate(-90 483.67 144.237)" fill="#D9D9D9" stroke="black"/>
<rect x="582.476" y="144.237" width="31.8947" height="46.7742" transform="rotate(-90 582.476 144.237)" fill="#D9D9D9" stroke="black"/>
<rect x="680.196" y="144.237" width="31.8947" height="46.7742" transform="rotate(-90 680.196 144.237)" fill="#D9D9D9" stroke="black"/>
<rect x="777.916" y="144.237" width="31.8947" height="46.7742" transform="rotate(-90 777.916 144.237)" fill="#D9D9D9" stroke="black"/>
<rect x="875.636" y="144.237" width="31.8947" height="46.7742" transform="rotate(-90 875.636 144.237)" fill="#D9D9D9" stroke="black"/>
<rect x="241.542" y="45.2368" width="26.1444" height="38.4737" fill="#D9D9D9" stroke="black"/>
<rect x="339.262" y="45.2368" width="26.1444" height="38.4737" fill="#D9D9D9" stroke="black"/>
<rect x="436.982" y="45.2368" width="26.1444" height="38.4737" fill="#D9D9D9" stroke="black"/>
<rect x="535.788" y="45.2368" width="26.1444" height="38.4737" fill="#D9D9D9" stroke="black"/>
<rect x="633.508" y="45.2368" width="26.1444" height="38.4737" fill="#D9D9D9" stroke="black"/>
<rect x="731.227" y="45.2368" width="26.1444" height="38.4737" fill="#D9D9D9" stroke="black"/>
<rect x="828.947" y="45.2368" width="26.1444" height="38.4737" fill="#D9D9D9" stroke="black"/>
<rect x="212.226" y="45.2368" width="26.1444" height="38.4737" fill="#D9D9D9" stroke="black"/>
<rect x="308.86" y="45.2368" width="26.1444" height="38.4737" fill="#D9D9D9" stroke="black"/>
<rect x="406.58" y="45.2368" width="26.1444" height="38.4737" fill="#D9D9D9" stroke="black"/>
<rect x="504.3" y="45.2368" width="26.1444" height="38.4737" fill="#D9D9D9" stroke="black"/>
<rect x="603.106" y="45.2368" width="26.1444" height="38.4737" fill="#D9D9D9" stroke="black"/>
<rect x="700.826" y="45.2368" width="26.1444" height="38.4737" fill="#D9D9D9" stroke="black"/>
<rect x="798.546" y="45.2368" width="26.1444" height="38.4737" fill="#D9D9D9" stroke="black"/>
<rect x="896.265" y="45.2368" width="26.1444" height="38.4737" fill="#D9D9D9" stroke="black"/>
<line x1="958.155" x2="958.155" y2="150" stroke="black"/>
<line x1="42.8453" x2="42.8453" y2="150" stroke="black"/>
<line y1="-0.5" x2="66.3574" y2="-0.5" transform="matrix(0.818128 0.575036 -0.431712 0.902012 42.3453 46.0526)" stroke="black"/>
<line x1="96.6341" y1="83.7105" x2="140.065" y2="83.7105" stroke="black"/>
<line x1="79.7617" y1="1.31579" x2="79.7617" y2="71.0526" stroke="black"/>
<line y1="-0.5" x2="46.9124" y2="-0.5" transform="matrix(0.786922 0.617052 -0.471009 0.882128 42.3453 85.5263)" stroke="black"/>
<path d="M79.8046 113.158V148.684" stroke="black"/>
<line y1="-0.5" x2="19.2968" y2="-0.5" transform="matrix(0.731474 -0.68187 0.535912 0.844274 926.167 78.9474)" stroke="black"/>
<line x1="939.697" y1="44.7368" x2="939.697" y2="65.7895" stroke="black"/>
<line x1="939.197" y1="45.5526" x2="958.74" y2="45.5526" stroke="black"/>
<defs>
<filter id="filter0_d_5_111" x="140.408" y="5.26316" width="35.1444" height="47.4737" filterUnits="userSpaceOnUse" color-interpolation-filters="sRGB">
<feFlood flood-opacity="0" result="BackgroundImageFix"/>
<feColorMatrix in="SourceAlpha" type="matrix" values="0 0 0 0 0 0 0 0 0 0 0 0 0 0 0 0 0 0 127 0" result="hardAlpha"/>
<feOffset dy="4"/>
<feGaussianBlur stdDeviation="2"/>
<feComposite in2="hardAlpha" operator="out"/>
<feColorMatrix type="matrix" values="0 0 0 0 0 0 0 0 0 0 0 0 0 0 0 0 0 0 0.25 0"/>
<feBlend mode="normal" in2="BackgroundImageFix" result="effect1_dropShadow_5_111"/>
<feBlend mode="normal" in="SourceGraphic" in2="effect1_dropShadow_5_111" result="shape"/>
</filter>
</defs>
</svg>
